<?xml version="1.0" encoding="UTF-8" standalone="no"?>
<!-- Created with Inkscape (http://www.inkscape.org/) -->

<svg
   width="170.98938mm"
   height="38.104893mm"
   viewBox="0 0 170.98938 38.104893"
   version="1.1"
   id="svg1"
   xml:space="preserve"
   xmlns="http://www.w3.org/2000/svg"
   xmlns:svg="http://www.w3.org/2000/svg"><defs
     id="defs1" /><g
     id="layer1"
     transform="translate(-16.348323,-121.2431)"><path
       style="fill:#000000"
       d="m 64.14925,158.84908 c -0.389802,-0.43073 -0.941612,-0.51324 -4.037219,-0.6037 -3.152255,-0.0921 -3.63036,-0.16585 -3.955118,-0.60999 -0.276637,-0.37832 -0.369413,-1.48546 -0.369413,-4.40838 0,-3.73349 0.02556,-3.92108 0.588039,-4.31505 0.490437,-0.34352 1.588308,-0.41188 6.614583,-0.41188 5.673768,0 6.057522,0.031 6.555712,0.52917 0.478933,0.47893 0.529167,0.88194 0.529167,4.24536 0,3.59281 -0.02156,3.73775 -0.649432,4.36562 -0.357187,0.35719 -0.85725,0.64943 -1.11125,0.64943 -0.359192,0 -0.391263,0.0706 -0.144318,0.3175 0.174625,0.17463 0.3175,0.41275 0.3175,0.52917 0,0.11642 -0.874516,0.21167 -1.943368,0.21167 -1.568076,0 -2.030562,-0.0964 -2.394883,-0.49892 z m 1.40612,-3.04679 c 0.196941,-0.2373 0.280014,-1.21329 0.230834,-2.71198 l -0.07683,-2.34127 h -2.778125 -2.778125 l -0.07711,2.36031 c -0.04241,1.29817 -0.01638,2.51856 0.05784,2.71198 0.09901,0.25802 0.797856,0.35167 2.624397,0.35167 1.811976,0 2.573176,-0.10089 2.797112,-0.37071 z m -47.421624,2.31626 c -0.09992,-0.0999 -0.181664,-2.30494 -0.181664,-4.90007 v -4.7184 h 1.946319 1.946319 l 1.976147,3.09343 c 1.086882,1.70138 2.09968,3.1346 2.250663,3.18493 0.150983,0.0503 1.200356,-1.34643 2.331941,-3.1039 l 2.057426,-3.1954 2.013822,0.0766 2.013822,0.0766 v 4.7625 4.7625 h -1.984375 -1.984375 l -0.07997,-1.38906 c -0.04398,-0.76398 -0.189154,-1.38906 -0.322599,-1.38906 -0.133444,0 -0.661524,0.65484 -1.173511,1.45521 l -0.930886,1.4552 -1.789224,-0.004 c -0.984073,-0.002 -1.913421,-0.0915 -2.065217,-0.19843 -0.151796,-0.10692 -0.628046,-0.75972 -1.058333,-1.45069 -0.430287,-0.69096 -0.865415,-1.25651 -0.966951,-1.25677 -0.101536,-2.6e-4 -0.220598,0.62461 -0.264583,1.38859 l -0.07997,1.38906 -1.736566,0.0714 c -0.955111,0.0393 -1.818314,-0.0103 -1.918229,-0.11024 z m 18.875259,-0.15961 c 0.0038,-0.18191 1.291705,-2.3548 2.861996,-4.82865 l 2.855075,-4.49792 2.138394,-0.0764 c 1.916266,-0.0685 2.207883,-0.0135 2.807346,0.52916 0.367924,0.33307 1.797718,2.46652 3.177321,4.74099 l 2.50837,4.1354 -1.780568,0.17545 c -0.99955,0.0985 -2.08011,0.0616 -2.463468,-0.0842 -0.375596,-0.1428 -0.761025,-0.38605 -0.856509,-0.54054 -0.10587,-0.17131 -1.338714,-0.28091 -3.159695,-0.28091 -2.650068,0 -3.039975,0.0596 -3.464975,0.52917 -0.401365,0.4435 -0.814908,0.52916 -2.554549,0.52916 -1.487831,0 -2.0737,-0.0937 -2.068738,-0.33072 z m 9.782662,-2.96578 c 0,-0.0668 -0.326555,-0.66214 -0.725678,-1.32292 -0.399122,-0.66077 -0.814348,-1.20141 -0.922722,-1.20141 -0.108375,0 -0.474811,0.44649 -0.814303,0.99219 -0.339492,0.5457 -0.7052,1.14101 -0.812684,1.32292 -0.148215,0.25083 0.223816,0.33072 1.53998,0.33072 0.954474,0 1.735407,-0.0547 1.735407,-0.1215 z m 26.590626,3.10501 c -0.291042,-0.0648 -0.677995,-0.30903 -0.859896,-0.54285 -0.233765,-0.30049 -0.330729,-1.69349 -0.330729,-4.75131 v -4.32619 l 2.050521,0.0773 2.050521,0.0773 0.132291,3.70417 0.132292,3.70417 h 2.910417 2.910416 l 0.132292,-3.70417 0.132292,-3.70417 h 1.984375 1.984375 l 0.0724,4.24034 c 0.0549,3.21574 -0.0131,4.35728 -0.28148,4.72432 -0.32243,0.44095 -0.893511,0.48998 -6.422418,0.55143 -3.337685,0.0371 -6.306644,0.0145 -6.597685,-0.0503 z m 15.935127,0.0173 c -0.42992,-0.12049 -0.46302,-0.5215 -0.39688,-4.80725 l 0.0722,-4.6758 h 1.98438 1.98437 l 0.0722,4.69636 0.0723,4.69635 h -0.89907 c -0.49449,0 -1.24138,0.0499 -1.65975,0.1109 -0.41837,0.061 -0.97175,0.0517 -1.22972,-0.0206 z m 7.28206,-0.0394 -1.12448,-0.0814 v -4.74729 -4.74729 l 1.91823,0.002 1.91823,0.002 2.68847,2.51149 c 1.47865,1.38133 2.75857,2.5115 2.84427,2.5115 0.0857,0 0.1558,-1.13109 0.1558,-2.51354 V 148.5 h 1.98438 1.98437 v 4.63021 c 0,2.54661 0.0298,4.71951 0.0662,4.82865 0.0364,0.10914 -0.79132,0.2333 -1.83932,0.27591 l -1.90547,0.0775 -2.71407,-2.52487 c -1.49274,-1.38868 -2.80817,-2.52488 -2.92318,-2.52488 -0.11501,0 -0.20911,1.13482 -0.20911,2.52183 v 2.52183 l -0.85989,-0.0744 c -0.47295,-0.0409 -1.36591,-0.11105 -1.98438,-0.1558 z m 15.03417,-0.11707 c 0.0105,-0.18191 1.29571,-2.3548 2.85606,-4.82865 l 2.837,-4.49792 1.95365,-0.0787 c 1.07451,-0.0433 2.26783,0.0515 2.65183,0.21051 0.49891,0.20666 1.46569,1.55062 3.38736,4.7089 2.54531,4.18327 2.65759,4.42841 2.09887,4.58245 -0.32466,0.0895 -1.34406,0.14905 -2.26534,0.13229 -1.26546,-0.023 -1.75781,-0.14367 -2.01354,-0.49348 -0.28836,-0.39444 -0.78854,-0.46302 -3.37718,-0.46302 -2.70266,0 -3.09163,0.0585 -3.51756,0.52917 -0.40137,0.4435 -0.81491,0.52916 -2.55455,0.52916 -1.49431,0 -2.07032,-0.0926 -2.0566,-0.33072 z m 9.77052,-3.01947 c 0,-0.0964 -0.30267,-0.69167 -0.67261,-1.32291 -0.36994,-0.63125 -0.77296,-1.14773 -0.89561,-1.14773 -0.12265,0 -0.41529,0.29766 -0.65031,0.66146 -0.23502,0.3638 -0.61959,0.95911 -0.85461,1.32292 l -0.4273,0.66145 h 1.75022 c 0.96262,0 1.75022,-0.0788 1.75022,-0.17519 z m 9.43174,3.16259 c -0.46113,-0.11875 -0.48122,-0.40264 -0.33955,-4.79795 l 0.15057,-4.67174 6.26646,-0.071 c 5.55096,-0.0629 6.32231,-0.0205 6.7557,0.37174 0.4126,0.3734 0.48925,0.84937 0.48925,3.03828 0,2.29533 -0.0592,2.6272 -0.51177,2.86941 -0.28148,0.15064 -0.75773,0.27389 -1.05834,0.27389 -0.30061,0 -0.54656,0.0957 -0.54656,0.21269 0,0.11697 0.42649,0.62299 0.94776,1.12447 0.52127,0.50149 1.06124,1.12016 1.19993,1.37482 0.23007,0.42242 0.0764,0.46302 -1.75215,0.46302 h -2.00432 l -1.49821,-1.5875 c -1.46465,-1.55193 -1.52961,-1.5875 -2.89978,-1.5875 h -1.40156 v 1.5875 1.5875 l -1.65365,-0.0307 c -0.9095,-0.0169 -1.8742,-0.0875 -2.14378,-0.15691 z m 9.30786,-5.7203 c 0.051,-0.26617 0.0203,-0.77219 -0.0681,-1.12448 -0.15665,-0.62413 -0.22838,-0.64053 -2.80156,-0.64053 h -2.64079 v 1.19988 1.19988 l 2.70887,-0.0754 c 2.3803,-0.0663 2.72012,-0.13411 2.80156,-0.55935 z m 6.81493,5.70966 c -0.085,-0.085 -0.15453,-2.28282 -0.15453,-4.88407 v -4.72953 l 2.05052,0.0773 2.05052,0.0773 v 4.7625 4.7625 l -1.89599,0.0443 c -1.04279,0.0244 -1.96553,-0.0252 -2.05052,-0.11024 z m 6.9598,-0.005 c -0.35246,-0.16008 0.0752,-1.00704 2.46908,-4.88996 l 2.89536,-4.69636 h 2.19797 c 1.71347,0 2.3157,0.10207 2.73203,0.46302 0.29373,0.25466 1.63453,2.2451 2.97955,4.42319 1.34502,2.17809 2.50099,4.17239 2.56882,4.43177 0.11084,0.42385 -0.0944,0.4716 -2.02679,0.4716 -1.82269,0 -2.21911,-0.0806 -2.6032,-0.52916 -0.40398,-0.47181 -0.7805,-0.52917 -3.47397,-0.52917 -2.54554,0 -3.07298,0.0712 -3.35194,0.45274 -0.24599,0.33642 -0.79732,0.47114 -2.14583,0.52434 -0.99813,0.0394 -2.00662,-0.0155 -2.24108,-0.12201 z m 8.86743,-4.29465 c -0.39601,-0.72769 -0.86838,-1.323 -1.04971,-1.323 -0.18132,0 -0.63865,0.52722 -1.01628,1.1716 -0.37763,0.64437 -0.6866,1.23968 -0.6866,1.32291 0,0.0832 0.78134,0.15132 1.7363,0.15132 h 1.73631 z m 9.86449,4.3268 c -0.0999,-0.0999 -0.18166,-0.57854 -0.18166,-1.06361 v -0.88194 h 4.35631 c 4.1305,0 4.37147,-0.0283 4.64857,-0.54608 0.21693,-0.40534 0.21098,-0.64401 -0.0231,-0.92604 -0.24808,-0.29892 -1.15089,-0.37997 -4.23279,-0.37997 -3.20855,0 -3.9927,-0.0752 -4.33323,-0.41577 -0.30755,-0.30755 -0.41577,-0.95789 -0.41577,-2.49854 0,-1.85233 0.0651,-2.12833 0.58803,-2.49464 0.49044,-0.34352 1.58831,-0.41188 6.61459,-0.41188 h 6.02654 v 1.05194 1.05193 l -4.43177,0.0726 -4.43177,0.0725 -0.0837,0.7276 -0.0837,0.72761 h 3.98633 c 3.63354,0 4.03315,0.0468 4.51549,0.52916 0.43263,0.43264 0.52916,0.88195 0.52916,2.46298 0,1.25152 -0.13238,2.11501 -0.37522,2.44739 -0.34971,0.47867 -0.78719,0.51845 -6.43292,0.58501 -3.33174,0.0393 -6.13945,-0.0103 -6.23936,-0.11024 z M 17.257093,144.69819 c 0.499825,-0.78135 2.46647,-3.96627 4.370323,-7.0776 1.903854,-3.11133 4.208263,-6.84759 5.120909,-8.3028 l 1.659358,-2.64583 4.646177,-0.0721 c 4.465727,-0.0693 4.67909,-0.0487 5.49358,0.52917 0.546166,0.3875 2.283016,2.90556 4.885897,7.08351 2.221172,3.56526 4.655689,7.50478 5.410037,8.75448 0.754349,1.2497 1.447487,2.47009 1.540309,2.71197 0.153584,0.40024 -0.268145,0.43951 -4.688188,0.43653 l -4.856953,-0.003 -0.597745,-0.92277 -0.597745,-0.92276 H 33.45391 27.264768 l -0.546378,0.92604 -0.546378,0.92604 h -4.911845 -4.911845 z m 19.74499,-4.82088 c 0,-0.0859 -0.743207,-1.39555 -1.651572,-2.91042 -0.908364,-1.51487 -1.712036,-2.75369 -1.785937,-2.75293 -0.0739,7.5e-4 -0.848741,1.15807 -1.721866,2.57182 -0.873125,1.41375 -1.625996,2.72282 -1.673046,2.90904 -0.06624,0.26217 0.695241,0.33859 3.373437,0.33859 1.902441,0 3.458984,-0.0702 3.458984,-0.1561 z m 19.155834,5.34194 -0.899583,-0.89959 v -7.99041 -7.99042 l 0.899583,-0.89958 0.899583,-0.89959 h 12.329584 12.329584 v 2.11667 2.11667 l -8.532813,0.004 c -4.693047,0.002 -8.684417,0.10027 -8.869712,0.21787 -0.250127,0.15874 -0.352346,1.52301 -0.396875,5.29692 -0.05045,4.27561 0.0031,5.12301 0.336899,5.33433 0.228993,0.14495 4.006338,0.25294 8.929688,0.25528 l 8.532813,0.004 v 2.11666 2.11667 H 69.387084 57.0575 Z m 31.408713,0.53035 c -0.34779,-0.19276 -0.79005,-0.63502 -0.98282,-0.98281 -0.27064,-0.48829 -0.35261,-2.63629 -0.35985,-9.42973 l -0.009,-8.7974 h 4.23333 4.23334 v 7.35542 c 0,5.3681 0.0858,7.4412 0.3175,7.67292 0.227,0.227 1.91844,0.3175 5.93423,0.3175 4.75334,0 5.68064,-0.0639 6.0325,-0.41578 0.35776,-0.35776 0.41577,-1.42829 0.41577,-7.67291 v -7.25715 h 4.23334 4.23333 v 8.89 8.89 l -0.89958,0.89959 -0.89959,0.89958 -12.92489,-0.009 c -10.21979,-0.007 -13.05725,-0.0827 -13.55724,-0.35986 z m 32.77921,-9.42035 v -9.78959 h 4.19678 4.19678 l 5.39437,5.12944 c 2.9669,2.82119 5.48366,5.07635 5.5928,5.01147 0.10914,-0.0649 0.19843,-2.37608 0.19843,-5.13599 v -5.01802 l 4.29948,0.0727 4.29948,0.0727 v 9.65729 9.65729 l -4.26389,0.0725 -4.2639,0.0725 -5.2275,-4.96732 c -2.87512,-2.73203 -5.39145,-5.00582 -5.59183,-5.05287 -0.29965,-0.0704 -0.36434,0.81048 -0.36434,4.96094 v 5.04654 h -4.23333 -4.23333 z m 32.80833,9.66928 c 0,-0.0662 0.81425,-1.46515 1.80943,-3.10885 0.99519,-1.64371 3.5097,-5.72699 5.5878,-9.07397 2.0781,-3.34698 3.95028,-6.36059 4.1604,-6.69692 0.37994,-0.60815 0.40872,-0.61104 5.25568,-0.52916 l 4.87365,0.0823 0.76879,0.79375 c 0.42283,0.43656 3.001,4.42515 5.72926,8.86354 2.72826,4.43838 5.19404,8.45674 5.4795,8.92969 l 0.51901,0.85989 h -5.01155 -5.01156 l -0.4987,-0.92604 -0.49871,-0.92604 h -6.2637 -6.2637 l -0.54637,0.92604 -0.54638,0.92604 h -4.77142 c -2.62429,0 -4.77143,-0.0541 -4.77143,-0.1203 z m 20.37292,-6.20489 c 0,-0.13187 -0.69118,-1.40406 -1.53595,-2.82708 -0.84478,-1.42303 -1.64845,-2.62074 -1.78594,-2.66159 -0.13749,-0.0409 -0.96436,1.12089 -1.83749,2.58163 -0.87312,1.46075 -1.62718,2.76636 -1.67569,2.90136 -0.0513,0.14287 1.35851,0.24545 3.37344,0.24545 1.90389,0 3.46163,-0.10789 3.46163,-0.23977 z m -52.74028,-15.81161 c -0.097,-0.097 -0.17639,-0.75296 -0.17639,-1.45766 v -1.28127 l 13.29531,0.0686 13.29532,0.0686 0.08,1.38906 0.08,1.38906 h -13.19889 c -7.2594,0 -13.27828,-0.0794 -13.37529,-0.17638 z"
       id="path1" /></g></svg>
