<svg xmlns="http://www.w3.org/2000/svg" width="232" height="43" viewBox="0 0 232 43" fill="none"><g clip-path="url(#clip0_801_1777)"><path d="M42.0069 29.6355L26.8169 14.2018C26.7692 14.1535 26.7533 14.0891 26.7533 14.0086C26.7533 13.8476 26.8647 13.7268 27.0237 13.7268L40.2334 13.7188C41.482 13.7188 42.4999 14.7171 42.4999 15.9811L42.492 29.4261C42.492 29.5872 42.3727 29.724 42.2136 29.724C42.1341 29.724 42.0546 29.6918 42.0069 29.6355Z" fill="#F58427"></path><path d="M42.4443 33.7978V43.008H17.202C5.16139 43 0 35.1503 0 25.5778V0.0322037H9.08213L9.09009 25.5053C9.09009 30.827 11.5555 33.7897 17.2656 33.7897L42.4443 33.7978Z" fill="#12468B"></path><path d="M21.8146 20.3527C21.8544 20.6667 22.1009 20.9163 22.4111 20.9566H29.6561L37.7123 29.1846C37.7759 29.241 37.8237 29.3134 37.8237 29.402C37.8237 29.563 37.7044 29.6838 37.5453 29.6838H17.2974C14.8002 29.6838 13.1778 28.0333 13.1778 25.5053L13.1699 7.50346C13.1699 2.44748 16.7884 0 21.7828 0L41.3468 0.00805093V8.73526H22.4429C22.1248 8.76746 21.8623 9.01704 21.8226 9.33908V20.3527H21.8146Z" fill="#12468B"></path><path d="M165.896 17.9375C167.948 17.9375 169.554 20.9244 169.554 24.7324C169.554 28.5405 167.948 31.5274 165.896 31.5274C163.844 31.5274 162.23 28.5405 162.23 24.7324C162.238 20.9244 163.844 17.9375 165.896 17.9375ZM231.992 22.5345V33.4596C231.992 34.6914 230.99 35.7059 229.773 35.7059L218.417 35.7139C212.015 35.7139 207.402 31.9058 207.402 24.5312C207.402 17.3658 210.519 13.5739 217.176 13.5739L231.992 13.5658V18.4044H216.842V31.1812H223.069L223.077 27.0833H219.967L219.959 22.5184L231.992 22.5345ZM150.157 19.6362L137.011 19.6443V24.8291H140.686V30.1105H133.337V14.387L150.141 14.3951L150.165 8.90433H133.337C125.782 8.90433 122.235 14.862 122.235 23.0095C122.235 31.3906 126.06 35.7139 133.337 35.7139H147.676C149.052 35.7139 150.165 34.5546 150.165 33.1537L150.157 19.6362ZM165.665 36.0681C173.976 36.0681 179.209 31.5838 179.209 24.5312C179.209 18.662 174.779 13.4289 166.079 13.4289C157.792 13.4289 152.623 18.493 152.623 24.8774C152.623 30.9639 157.235 36.0601 165.626 36.0601H165.665V36.0681ZM110.274 31.1893H106.202L106.194 13.7993H96.7064V25.7549C96.7064 32.7914 100.611 36.0762 108.007 36.0762C115.618 36.0762 119.77 32.6626 119.77 25.8918V13.7912H110.282L110.274 31.1893ZM93.5173 35.7139H83.5047V13.7912H93.5094V35.7139H93.5173ZM61.7219 35.7139C60.3381 35.7139 59.2247 34.5707 59.2247 33.1698L59.2327 9.1378H70.3746V30.1185H81.0871L81.0791 35.7059L61.7219 35.7139ZM190.192 13.7832C190.192 13.7832 195.536 22.1239 196.061 23.0176V13.7912H204.944V35.7059H197.27C197.27 35.7059 191.281 26.1736 190.558 24.9418V35.7059H181.651V13.7912L190.192 13.7832Z" fill="#12468B"></path></g><defs><clipPath id="clip0_801_1777"><rect width="232" height="43" fill="white"></rect></clipPath></defs></svg>