<svg xmlns="http://www.w3.org/2000/svg" viewBox="0 0 115.65 30.63"><g id="Capa_2" data-name="Capa 2"><g id="Capa_1-2" data-name="Capa 1"><path d="M17.64,19.6,16.33,17H7.43L6.12,19.6H0L9,3h5.88l9,16.59Zm-8.5-6.19h5.48L11.88,8.29h-.05Z"/><path d="M30.19,19.6c-1.92,0-3.23-.29-3.91-.87s-1-1.73-1-3.44v-8c0-1.72.34-2.86,1-3.44s2-.87,3.92-.87H43.94V7.13H31.4a.56.56,0,0,0-.36.08.4.4,0,0,0-.09.3v7.4a.42.42,0,0,0,.09.32.56.56,0,0,0,.36.08H43.94V19.6Z"/><path d="M51.25,19.72c-1.92,0-3.21-.29-3.88-.87s-1-1.73-1-3.44V3H52V15a.49.49,0,0,0,.08.32.54.54,0,0,0,.37.08H60a.55.55,0,0,0,.36-.08.44.44,0,0,0,.09-.32V3H66v12.4c0,1.71-.34,2.86-1,3.44s-2,.87-3.88.87Z"/><path d="M85.8,19.6l-6.48-5.52L74.39,9.7h-.07c.11,1.63.17,3.38.17,5.23V19.6H69V3h4.33l7.21,6.16q.52.44,4.24,3.79h.07c-.14-3-.22-4.76-.22-5.29V3h5.48V19.6Z"/><path d="M109.41,19.6,108.1,17H99.2L97.89,19.6H91.77l9-16.59h5.88l9,16.59Zm-8.49-6.19h5.47l-2.74-5.12h0Z"/><path d="M9.87,28.87V26.29c0-1.17,0-2.05.09-2.65H9.91A14.24,14.24,0,0,1,9.06,25L7,28H6.44L4.33,25a11.67,11.67,0,0,1-.84-1.35h0c0,.8.08,1.68.08,2.65v2.58H.78V20.51H3.91L5.56,23l1.17,1.78C7,24.29,7.4,23.7,7.9,23l1.65-2.47h3.08v8.36Z"/><path d="M22.35,28.87l-.65-1.3H17.21l-.66,1.3H13.47L18,20.51h3l4.54,8.36Zm-4.28-3.12h2.76l-1.38-2.58h0Z"/><path d="M32.62,30.63l-.76-1.7H28.67a3.19,3.19,0,0,1-2-.44,2.24,2.24,0,0,1-.51-1.73V22.62a2.27,2.27,0,0,1,.51-1.74,3.2,3.2,0,0,1,2-.43h5.88a3.14,3.14,0,0,1,2,.43,2.31,2.31,0,0,1,.5,1.74v4.14a2.29,2.29,0,0,1-.5,1.73,3.13,3.13,0,0,1-2,.44h-.4l.76,1.7Zm1.52-7.92a.21.21,0,0,0,0-.15.34.34,0,0,0-.18,0H29.32a.43.43,0,0,0-.2,0,.17.17,0,0,0-.05.15v3.85a.25.25,0,0,0,0,.17.45.45,0,0,0,.21,0h1.6l-.43-1,1.9-.84.8,1.83h.72a.34.34,0,0,0,.18,0,.25.25,0,0,0,0-.17Z"/><path d="M40.9,28.93a3.15,3.15,0,0,1-2-.44,2.29,2.29,0,0,1-.5-1.73V20.51h2.82v6a.25.25,0,0,0,0,.17.35.35,0,0,0,.19,0H45.3a.34.34,0,0,0,.18,0,.25.25,0,0,0,.05-.17v-6h2.82v6.25a2.24,2.24,0,0,1-.52,1.73,3.15,3.15,0,0,1-1.95.44Z"/><path d="M49.85,28.87V20.51h2.87v8.36Z"/><path d="M62.71,28.87l-3.26-2.79L57,23.88h0c.06.82.08,1.7.08,2.64v2.35H54.25V20.51h2.19l3.63,3.1c.18.15.89.78,2.14,1.91h0c-.07-1.51-.11-2.4-.11-2.66V20.51h2.76v8.36Z"/><path d="M74.61,28.87,74,27.57H69.47l-.66,1.3H65.73l4.53-8.36h3l4.54,8.36Zm-4.28-3.12h2.76l-1.38-2.58h0Z"/><path d="M85.33,28.87,83.08,26.1H81.41v2.77H78.59V20.51h7.1a3.39,3.39,0,0,1,1.93.39,1.77,1.77,0,0,1,.51,1.48v1.89a1.7,1.7,0,0,1-.47,1.4,2.49,2.49,0,0,1-1.39.43l2.42,2.77Zm0-6.16a.25.25,0,0,0,0-.17.26.26,0,0,0-.18,0H81.41v1.59h3.75a.26.26,0,0,0,.18,0,.25.25,0,0,0,0-.17Z"/><path d="M89.5,28.87V20.51h2.86v8.36Z"/><path d="M102.08,28.87l-.66-1.3H96.94l-.66,1.3H93.19l4.54-8.36h3l4.53,8.36ZM97.8,25.75h2.76l-1.38-2.58h0Z"/><path d="M105.93,28.87V26.79h6.58a.26.26,0,0,0,.18,0,.22.22,0,0,0,0-.16v-.83a.21.21,0,0,0,0-.15.26.26,0,0,0-.18,0h-4.1a3.5,3.5,0,0,1-2-.4,2,2,0,0,1-.49-1.59V22.47a1.89,1.89,0,0,1,.52-1.56,3.39,3.39,0,0,1,2-.4h6.8v2H109c-.09,0-.15,0-.18.05a.22.22,0,0,0-.05.16v.71a.2.2,0,0,0,.05.16.26.26,0,0,0,.18.05h4.14a3.51,3.51,0,0,1,2,.38,1.91,1.91,0,0,1,.51,1.57v1.26c0,.84-.16,1.39-.5,1.64a3.54,3.54,0,0,1-2,.39Z"/><rect x="68.77" width="21" height="2"/></g></g></svg>